<?xml version="1.0" encoding="UTF-8" standalone="no"?>
<svg
   xmlnsDc="http://purl.org/dc/elements/1.1/"
   xmlnsCc="http://creativecommons.org/ns#"
   xmlnsRdf="http://www.w3.org/1999/02/22-rdf-syntax-ns#"
   xmlnsSvg="http://www.w3.org/2000/svg"
   xmlns="http://www.w3.org/2000/svg"
   viewBox="0 0 320.54666 82.120003"
   height="82.120003"
   width="320.54666"
   xmlSpace="preserve"
   id="svg2"
   version="1.1"><metadata
     id="metadata8"><rdfRDF><ccWork
         rdfAbout=""><dcFormat>image/svg+xml</dcFormat><dcType
           rdfResource="http://purl.org/dc/dcmitype/StillImage" /></ccWork></rdfRDF></metadata><defs
     id="defs6" /><g
     transform="matrix(1.3333333,0,0,-1.3333333,0,82.12)"
     id="g10"><g
       transform="scale(0.1)"
       id="g12"><path
         id="path14"
         style="fill:#231f20;fill-opacity:1;fill-rule:nonzero;stroke:none"
         d="m 875.207,65.2031 c -1.305,10.5586 -2.184,23.8321 -2.184,45.4569 -17.242,-29.9881 -45.937,-47.7186 -78.574,-47.7186 -28.265,0 -49.902,13.6953 -58.719,37.1056 -4.402,11.926 -6.179,30.019 -6.179,68.441 v 72.817 c 0,22.968 -1.766,32.207 -6.613,36.191 -2.684,2.652 -6.622,3.574 -15.051,3.965 -5.711,0 -5.711,0 -7.946,0 v 9.727 l 68.422,4.39 c -2.179,-41.012 -2.609,-51.633 -2.609,-82.09 v -38.402 c 0,-44.57 0.859,-56.5 6.176,-71.945 5.285,-16.3285 17.652,-24.7035 35.742,-24.7035 24.273,0 45.906,15.8945 57.406,42.8125 6.594,14.988 7.945,24.723 7.945,52.078 v 67.977 c 0,23.398 -1.351,31.793 -6.652,35.742 -2.664,2.66 -7.066,4.023 -15.012,4.414 h -7.957 v 9.727 l 68.442,4.39 c -1.324,-33.086 -2.192,-62.207 -2.192,-82.09 v -83.422 c 0,-44.1676 3.981,-52.0894 26.891,-52.0894 h 3.109 v -9.6875 l -64.445,-3.086" /><path
         id="path16"
         style="fill:#231f20;fill-opacity:1;fill-rule:nonzero;stroke:none"
         d="m 1082.66,122.559 c 17.66,-31.3754 45.49,-48.1098 80.8,-48.1098 35.32,0 63.13,16.7344 80.76,48.1098 15.89,28.703 23.83,63.16 23.83,105.914 0,42.843 -7.94,77.289 -23.83,105.976 -17.63,31.75 -45.44,48.098 -80.76,48.098 -35.31,0 -63.14,-16.777 -80.8,-48.098 -15.88,-29.136 -23.8,-63.98 -23.8,-105.976 0,-41.875 7.92,-76.328 23.8,-105.914 z m -31.76,221.562 c 26.47,33.145 64.88,50.324 112.56,50.324 48.12,0 85.63,-16.75 112.53,-50.324 24.28,-30.848 36.66,-69.242 36.66,-115.648 0,-46.328 -12.38,-85.164 -36.66,-115.157 -27.36,-34.0074 -64.41,-50.7574 -112.53,-50.7574 -47.68,0 -86.51,17.6445 -112.56,50.7574 -24.28,30.864 -36.67,69.27 -36.67,115.157 0,46.406 11.94,84.359 36.67,115.648" /><path
         id="path18"
         style="fill:#231f20;fill-opacity:1;fill-rule:nonzero;stroke:none"
         d="m 1412.87,130.93 c 0,-25.996 1.28,-37.5159 5.74,-43.6761 4.42,-6.1758 11.46,-9.2773 21.61,-9.2773 9.69,0 18.08,2.2265 27.77,7.9218 l 4.03,-11.4492 c -14.58,-7.539 -28.7,-11.0312 -44.61,-11.0312 -21.62,0 -37.97,7.5078 -45.48,21.6133 -4.87,8.8515 -6.14,18.5467 -6.14,51.2067 v 143.02 H 1348 v 10.156 c 26.01,2.242 39.25,19.414 45.86,60.895 l 20.29,5.793 c -0.84,-18.997 -1.28,-35.782 -1.28,-64.914 h 52.97 v -11.93 h -52.97 V 130.93" /><path
         id="path20"
         style="fill:#231f20;fill-opacity:1;fill-rule:nonzero;stroke:none"
         d="m 1558.4,130.93 c 0,-25.996 1.28,-37.5159 5.7,-43.6761 4.45,-6.1758 11.48,-9.2773 21.66,-9.2773 9.7,0 18.09,2.2265 27.79,7.9218 l 3.97,-11.4492 c -14.54,-7.539 -28.66,-11.0312 -44.55,-11.0312 -21.67,0 -38.01,7.5078 -45.48,21.6133 -4.88,8.8515 -6.19,18.5467 -6.19,51.2067 v 143.02 h -27.8 v 10.156 c 26.03,2.242 39.27,19.414 45.88,60.895 l 20.3,5.793 c -0.85,-18.997 -1.28,-35.782 -1.28,-64.914 h 52.98 v -11.93 H 1558.4 V 130.93" /><path
         id="path22"
         style="fill:#231f20;fill-opacity:1;fill-rule:nonzero;stroke:none"
         d="m 1789.24,191.418 c -39.27,-3.508 -56.51,-7.07 -74.17,-15.863 -19.39,-9.336 -29.57,-26.969 -29.57,-50.348 0,-27.8086 14.99,-46.7695 37.09,-46.7695 22.51,0 45.46,13.2227 56.52,32.2225 7.05,12.324 10.13,30.875 10.13,60.016 z m 64.03,-122.2774 c -17.24,-2.6445 -36.67,-4.3867 -45.49,-4.3867 -13.22,0 -16.75,7.0586 -18.54,36.6051 -7.05,-7.9449 -12.79,-12.7652 -21.62,-18.9645 -19.4,-14.1054 -34.89,-18.9765 -57.38,-18.9765 -19.4,0 -34.02,4.4297 -45.03,13.6601 -11.93,10.6133 -19.42,28.2739 -19.42,46.7929 0,34.875 22.1,57.41 64.9,67.098 22.95,5.273 46.34,8.414 78.55,10.613 v 27.793 c 0,20.324 -1.78,30.898 -6.14,40.148 -5.81,11.547 -18.13,17.223 -36.21,17.223 -29.11,0 -44.17,-13.234 -45.91,-40.594 -0.49,-9.277 -1.35,-12.343 -4.87,-15.023 -3.11,-2.227 -8.83,-3.481 -15.46,-3.481 -14.99,0 -21.63,3.961 -21.63,13.2 0,15.941 11.48,31.808 30.01,42.386 16.78,9.278 38.42,14.118 64.46,14.118 28.23,0 48.57,-6.594 59.17,-19.407 8.82,-10.98 12.81,-25.593 12.81,-49.89 0,-1.317 0,-1.317 -0.91,-44.586 l -0.43,-41.934 -0.44,-20.285 c 0,-18.555 2.19,-34.4375 4.85,-38.0117 2.66,-3.4922 7.91,-4.8008 24.73,-4.8008 v -9.2969" /><path
         id="path24"
         style="fill:#231f20;fill-opacity:1;fill-rule:nonzero;stroke:none"
         d="m 1963.6,66.4961 h -22.94 l -54.74,183.2029 c -7.5,25.18 -12.8,30.449 -34.41,31.762 v 9.727 h 97.97 v -9.727 c -21.18,-0.84 -29.58,-5.289 -29.58,-16.328 0,-3.516 1.34,-10.164 3.99,-19.395 l 39.71,-138.633 58.3,178.317 h 18.08 l 56.07,-178.317 38.39,129.77 c 3.55,11.039 5.29,19.465 5.29,25.617 0,7.528 -4.41,13.242 -12.37,15.903 -5.28,1.753 -8.39,2.226 -19.86,3.066 v 9.727 h 86.52 v -9.727 c -24.27,-1.313 -32.65,-9.715 -43.24,-43.676 L 2097.36,66.4961 h -22.5 L 2019.7,236.023 1963.6,66.4961" /><path
         id="path26"
         style="fill:#231f20;fill-opacity:1;fill-rule:nonzero;stroke:none"
         d="m 2340.13,191.418 c -39.25,-3.508 -56.51,-7.07 -74.13,-15.863 -19.46,-9.336 -29.61,-26.969 -29.61,-50.348 0,-27.8086 15.01,-46.7695 37.1,-46.7695 22.5,0 45.47,13.2227 56.49,32.2225 7.08,12.324 10.15,30.875 10.15,60.016 z m 64.02,-122.2774 c -17.23,-2.6445 -36.6,-4.3867 -45.48,-4.3867 -13.22,0 -16.8,7.0586 -18.54,36.6051 -7.05,-7.9449 -12.79,-12.7652 -21.59,-18.9645 -19.47,-14.1054 -34.92,-18.9765 -57.41,-18.9765 -19.4,0 -34,4.4297 -45.03,13.6601 -11.94,10.6133 -19.4,28.2739 -19.4,46.7929 0,34.875 22.06,57.41 64.87,67.098 22.94,5.273 46.34,8.414 78.56,10.613 v 27.793 c 0,20.324 -1.75,30.898 -6.18,40.148 -5.72,11.547 -18.08,17.223 -36.17,17.223 -29.16,0 -44.15,-13.234 -45.94,-40.594 -0.44,-9.277 -1.31,-12.343 -4.85,-15.023 -3.04,-2.227 -8.81,-3.481 -15.46,-3.481 -14.97,0 -21.58,3.961 -21.58,13.2 0,15.941 11.47,31.808 29.99,42.386 16.77,9.278 38.42,14.118 64.44,14.118 28.25,0 48.58,-6.594 59.18,-19.407 8.79,-10.98 12.78,-25.593 12.78,-49.89 0,-1.317 0,-1.317 -0.89,-44.586 l -0.41,-41.934 -0.48,-20.285 c 0,-18.555 2.21,-34.4375 4.91,-38.0117 2.61,-3.4922 7.91,-4.8008 24.68,-4.8008 v -9.2969" /><path
         id="path28"
         style="fill:#231f20;fill-opacity:1;fill-rule:nonzero;stroke:none"
         d="m 139.18,516.434 h 8.488 l 4.059,7.445 c 28.496,52.461 79.07,63.445 116.484,63.445 37.402,0 87.977,-10.984 116.484,-63.445 l 4.055,-7.445 c 0,0 37.559,0 54.129,0 0,-9.954 0,-34.852 0,-34.852 0,0 47.613,0 64.992,0 0,-26.035 0,-426.9765 0,-453.039 -26.176,0 -453.1366,0 -479.3202,0 0,26.0625 0,427.004 0,453.039 17.3828,0 64.9844,0 64.9844,0 0,0 0,24.898 0,34.852 16.5628,0 45.6448,0 45.6448,0 z m -7.809,28.539 c -11.808,0 -66.3788,0 -66.3788,0 0,0 0,-24.895 0,-34.828 -17.3828,0 -64.9922,0 -64.9922,0 L 0,0 h 536.434 v 510.145 c 0,0 -47.625,0 -65.012,0 0,9.933 0,34.828 0,34.828 0,0 -54.574,0 -66.383,0 -28.262,45.648 -76.332,70.906 -136.828,70.906 -60.504,0 -108.574,-25.258 -136.84,-70.906" /><path
         id="path30"
         style="fill:#231f20;fill-opacity:1;fill-rule:nonzero;stroke:none"
         d="M 263.379,449.523 53.4688,374.051 63.1211,347.203 c 0,0 195.8669,70.395 205.0899,73.711 9.219,-3.316 205.082,-73.711 205.082,-73.711 l 9.656,26.848 -214.738,77.211 -4.832,-1.739" /><path
         id="path32"
         style="fill:#231f20;fill-opacity:1;fill-rule:nonzero;stroke:none"
         d="M 412.621,149.156 H 367.762 L 363.867,309 c 1.192,-0.605 2.516,-0.98 3.938,-0.98 4.918,0 8.922,3.972 8.922,8.89 0,2.403 -0.973,4.594 -2.536,6.184 h 32.036 c -1.547,-1.59 -2.516,-3.781 -2.516,-6.184 0,-4.918 3.996,-8.89 8.879,-8.89 1.41,0 2.738,0.367 3.93,0.957 z m -81.355,0 h -44.825 l -3.894,159.731 c 1.148,-0.539 2.426,-0.867 3.773,-0.867 4.907,0 8.887,3.972 8.887,8.89 0,2.403 -0.969,4.594 -2.519,6.184 h 32.078 c -1.563,-1.59 -2.528,-3.781 -2.528,-6.184 0,-4.918 4,-8.89 8.871,-8.89 1.477,0 2.84,0.394 4.063,1.019 z m -81.266,0 h -44.992 l -3.891,159.856 c 1.211,-0.617 2.567,-0.992 4.016,-0.992 4.883,0 8.879,3.972 8.879,8.89 0,2.403 -0.973,4.594 -2.524,6.184 h 32.067 c -1.551,-1.59 -2.524,-3.781 -2.524,-6.184 0,-4.918 3.985,-8.89 8.891,-8.89 1.437,0 2.769,0.375 3.976,0.992 z m -81.434,0 h -44.937 l -3.891,159.875 c 1.215,-0.625 2.575,-1.011 4.024,-1.011 4.902,0 8.886,3.972 8.886,8.89 0,2.403 -0.968,4.594 -2.519,6.184 h 31.883 c -1.559,-1.59 -2.532,-3.781 -2.532,-6.184 0,-4.918 4.012,-8.89 8.915,-8.89 1.46,0 2.808,0.386 4.039,1.019 z m 280.508,0 -3.922,159.957 c 1.243,-0.675 2.633,-1.093 4.137,-1.093 4.922,0 8.906,3.972 8.906,8.89 0,2.403 -0.968,4.594 -2.519,6.184 h 7.176 v 15.722 H 73.582 v -15.722 h 7.1016 c -1.5547,-1.59 -2.5273,-3.781 -2.5273,-6.184 0,-4.918 3.9843,-8.89 8.9453,-8.89 1.4257,0 2.7539,0.375 3.9609,0.992 L 87.207,149.156 H 72.4492 v -26.16 H 463.883 v 26.16 h -14.809" /><path
         id="path34"
         style="fill:#231f20;fill-opacity:1;fill-rule:nonzero;stroke:none"
         d="M 478.102,89.2852 H 58.2891 V 104.988 H 478.102 V 89.2852" /><path
         id="path36"
         style="fill:#231f20;fill-opacity:1;fill-rule:nonzero;stroke:none"
         d="M 490.461,61.8281 H 45.9883 V 77.5313 H 490.461 V 61.8281" /></g></g></svg>